<mxfile host="app.diagrams.net" modified="2023-03-01T06:26:25.795Z" agent="5.0 (Windows)" etag="35kbIVJSxn2unMXp4myP" version="20.8.23" type="github">
  <diagram name="PLC" id="H19PpeyjSYvCmlVxLcTr">
    <mxGraphModel dx="1382" dy="711" grid="1" gridSize="10" guides="1" tooltips="1" connect="1" arrows="1" fold="1" page="1" pageScale="1" pageWidth="827" pageHeight="1169" math="0" shadow="0">
      <root>
        <mxCell id="0" />
        <mxCell id="1" parent="0" />
        <mxCell id="QhNbt1SuUjZvCSKVPDjd-1" value="&lt;div style=&quot;font-size: 17px;&quot; align=&quot;center&quot;&gt;&lt;font style=&quot;font-size: 17px;&quot;&gt;&lt;span style=&quot;&quot;&gt;&lt;span style=&quot;&quot;&gt;&lt;font style=&quot;font-size: 17px;&quot;&gt;&lt;font style=&quot;font-size: 17px;&quot;&gt;&lt;font style=&quot;font-size: 18px;&quot;&gt;PLC&lt;/font&gt;&lt;/font&gt;&lt;/font&gt;&lt;/span&gt;&lt;/span&gt;&lt;/font&gt;&lt;/div&gt;" style="swimlane;fontStyle=1;childLayout=stackLayout;horizontal=1;startSize=30;fillColor=#FFFFFF;horizontalStack=0;resizeParent=1;resizeParentMax=0;resizeLast=0;collapsible=1;marginBottom=0;html=1;verticalAlign=bottom;align=center;swimlaneFillColor=none;fillStyle=auto;fontSize=16;" vertex="1" collapsed="1" parent="1">
          <mxGeometry x="119" y="70" width="590" height="30" as="geometry">
            <mxRectangle x="120" y="70" width="560" height="292" as="alternateBounds" />
          </mxGeometry>
        </mxCell>
        <mxCell id="QhNbt1SuUjZvCSKVPDjd-2" value="&lt;div style=&quot;font-size: 15px;&quot;&gt;&lt;font style=&quot;font-size: 15px;&quot;&gt;&lt;b style=&quot;&quot;&gt;&lt;span style=&quot;&quot;&gt;&lt;font style=&quot;font-size: 15px;&quot;&gt;&lt;font style=&quot;font-size: 15px;&quot;&gt;&lt;font style=&quot;font-size: 16px;&quot;&gt;PLC概述&lt;/font&gt;&lt;/font&gt;&lt;/font&gt;&lt;/span&gt;&lt;/b&gt;&lt;/font&gt;&lt;/div&gt;" style="swimlane;fontStyle=1;childLayout=stackLayout;horizontal=1;startSize=30;fillColor=#FFFFFF;horizontalStack=0;resizeParent=1;resizeParentMax=0;resizeLast=0;collapsible=1;marginBottom=0;html=1;verticalAlign=middle;align=left;swimlaneFillColor=none;fillStyle=auto;spacingLeft=24;fontSize=14;gradientColor=#E6E6E6;gradientDirection=radial;" vertex="1" collapsed="1" parent="QhNbt1SuUjZvCSKVPDjd-1">
          <mxGeometry y="30" width="560" height="30" as="geometry">
            <mxRectangle y="30" width="560" height="2097" as="alternateBounds" />
          </mxGeometry>
        </mxCell>
        <mxCell id="QhNbt1SuUjZvCSKVPDjd-3" value="&lt;div&gt;&lt;b&gt;&lt;font style=&quot;font-size: 13px;&quot;&gt;&lt;font style=&quot;font-size: 14px;&quot;&gt;PLC &amp;nbsp; 可编程逻辑控制器 &lt;br&gt;&lt;/font&gt;&lt;/font&gt;&lt;/b&gt;&lt;/div&gt;&lt;div style=&quot;font-size: 13px;&quot;&gt;&lt;font style=&quot;font-size: 13px;&quot;&gt;&lt;font style=&quot;font-size: 13px;&quot;&gt;&lt;font style=&quot;font-size: 13px;&quot;&gt;&lt;font style=&quot;font-size: 12px;&quot;&gt;&amp;nbsp;&amp;nbsp;&amp;nbsp; - 自动画产线的大脑&lt;/font&gt;&lt;/font&gt;&lt;/font&gt;&lt;/font&gt;&lt;/div&gt;&lt;div&gt;&lt;br&gt;&lt;/div&gt;&lt;div&gt;&lt;b&gt;P&lt;/b&gt; -&lt;span style=&quot;background-color: rgb(204, 0, 0);&quot;&gt; Programmable&lt;/span&gt;&lt;b&gt;&lt;span style=&quot;background-color: rgb(204, 0, 0);&quot;&gt;&amp;nbsp;&lt;/span&gt;&amp;nbsp;&amp;nbsp;&amp;nbsp; L&lt;/b&gt; -&lt;span style=&quot;background-color: rgb(204, 0, 0);&quot;&gt; Logic&lt;/span&gt;&lt;b&gt;&lt;span style=&quot;background-color: rgb(204, 0, 0);&quot;&gt;&amp;nbsp;&lt;/span&gt;&amp;nbsp;&amp;nbsp;&amp;nbsp;&amp;nbsp;&amp;nbsp;&amp;nbsp; C&lt;/b&gt; -&lt;span style=&quot;background-color: rgb(204, 0, 0);&quot;&gt; Controller&amp;nbsp; &lt;br&gt;&lt;/span&gt;&lt;/div&gt;&lt;div&gt;&lt;br&gt;&lt;/div&gt;&lt;div&gt;&lt;br&gt;&lt;/div&gt;" style="text;strokeColor=#82b366;fillColor=#d5e8d4;align=center;verticalAlign=top;spacingLeft=4;spacingRight=4;overflow=hidden;rotatable=0;points=[[0,0.5],[1,0.5]];portConstraint=eastwest;whiteSpace=wrap;html=1;" vertex="1" parent="QhNbt1SuUjZvCSKVPDjd-2">
          <mxGeometry y="30" width="560" height="84" as="geometry" />
        </mxCell>
        <mxCell id="QhNbt1SuUjZvCSKVPDjd-4" value="&lt;b&gt;&lt;font style=&quot;font-size: 13px;&quot;&gt;&lt;font style=&quot;font-size: 14px;&quot;&gt;PLC 发展过程&lt;/font&gt;&lt;/font&gt;&lt;/b&gt;" style="text;strokeColor=none;fillColor=none;align=left;verticalAlign=top;spacingLeft=4;spacingRight=4;overflow=hidden;rotatable=0;points=[[0,0.5],[1,0.5]];portConstraint=eastwest;whiteSpace=wrap;html=1;" vertex="1" parent="QhNbt1SuUjZvCSKVPDjd-2">
          <mxGeometry y="114" width="560" height="28" as="geometry" />
        </mxCell>
        <mxCell id="QhNbt1SuUjZvCSKVPDjd-5" value="" style="shape=image;verticalLabelPosition=bottom;labelBackgroundColor=default;verticalAlign=top;aspect=fixed;imageAspect=0;image=http://139.224.43.44/diagram/images/plc/001.png;" vertex="1" parent="QhNbt1SuUjZvCSKVPDjd-2">
          <mxGeometry y="142" width="560" height="191" as="geometry" />
        </mxCell>
        <mxCell id="QhNbt1SuUjZvCSKVPDjd-6" value="&lt;b&gt;&lt;font style=&quot;font-size: 13px;&quot;&gt;&lt;font style=&quot;font-size: 14px;&quot;&gt;常见 PLC 品牌/厂商&lt;br&gt;&lt;/font&gt;&lt;/font&gt;&lt;/b&gt;" style="text;strokeColor=none;fillColor=none;align=left;verticalAlign=bottom;spacingLeft=4;spacingRight=4;overflow=hidden;rotatable=0;points=[[0,0.5],[1,0.5]];portConstraint=eastwest;whiteSpace=wrap;html=1;" vertex="1" parent="QhNbt1SuUjZvCSKVPDjd-2">
          <mxGeometry y="333" width="560" height="41" as="geometry" />
        </mxCell>
        <mxCell id="QhNbt1SuUjZvCSKVPDjd-7" value="" style="shape=image;imageAspect=0;aspect=fixed;verticalLabelPosition=bottom;verticalAlign=top;image=http://139.224.43.44/diagram/images/plc/002.png;" vertex="1" parent="QhNbt1SuUjZvCSKVPDjd-2">
          <mxGeometry y="374" width="560" height="191" as="geometry" />
        </mxCell>
        <mxCell id="QhNbt1SuUjZvCSKVPDjd-8" value="" style="group;verticalAlign=bottom;" vertex="1" connectable="0" parent="QhNbt1SuUjZvCSKVPDjd-2">
          <mxGeometry y="565" width="560" height="39" as="geometry" />
        </mxCell>
        <mxCell id="QhNbt1SuUjZvCSKVPDjd-9" value="&amp;nbsp;&lt;b&gt;&lt;font color=&quot;#000000&quot;&gt;PLC 和 CPU的关系&lt;/font&gt;&lt;/b&gt;" style="rounded=0;whiteSpace=wrap;html=1;labelBackgroundColor=#FFFFFF;fontSize=14;fontColor=#FFFFFF;strokeColor=none;verticalAlign=bottom;" vertex="1" parent="QhNbt1SuUjZvCSKVPDjd-8">
          <mxGeometry x="17" width="147" height="39" as="geometry" />
        </mxCell>
        <mxCell id="QhNbt1SuUjZvCSKVPDjd-10" value="" style="sketch=0;outlineConnect=0;fontColor=#232F3E;gradientColor=none;fillColor=#232F3D;strokeColor=none;dashed=0;verticalLabelPosition=bottom;verticalAlign=top;align=center;html=1;fontSize=12;fontStyle=0;aspect=fixed;pointerEvents=1;shape=mxgraph.aws4.question;labelBackgroundColor=#FFFFFF;" vertex="1" parent="QhNbt1SuUjZvCSKVPDjd-8">
          <mxGeometry x="11" y="11.5" width="12" height="22.83" as="geometry" />
        </mxCell>
        <mxCell id="QhNbt1SuUjZvCSKVPDjd-11" value="" style="shape=image;imageAspect=0;aspect=fixed;verticalLabelPosition=bottom;verticalAlign=top;image=http://139.224.43.44/diagram/images/plc/003.png;" vertex="1" parent="QhNbt1SuUjZvCSKVPDjd-2">
          <mxGeometry y="604" width="560" height="242" as="geometry" />
        </mxCell>
        <mxCell id="QhNbt1SuUjZvCSKVPDjd-12" value="&lt;b&gt;&lt;font style=&quot;font-size: 13px;&quot;&gt;&lt;font style=&quot;font-size: 14px;&quot;&gt;PLC 主要组成部分&lt;br&gt;&lt;/font&gt;&lt;/font&gt;&lt;/b&gt;" style="text;strokeColor=none;fillColor=none;align=left;verticalAlign=bottom;spacingLeft=4;spacingRight=4;overflow=hidden;rotatable=0;points=[[0,0.5],[1,0.5]];portConstraint=eastwest;whiteSpace=wrap;html=1;" vertex="1" parent="QhNbt1SuUjZvCSKVPDjd-2">
          <mxGeometry y="846" width="560" height="41" as="geometry" />
        </mxCell>
        <mxCell id="QhNbt1SuUjZvCSKVPDjd-13" value="" style="shape=image;imageAspect=0;aspect=fixed;verticalLabelPosition=bottom;verticalAlign=top;image=http://139.224.43.44/diagram/images/plc/004.png;" vertex="1" parent="QhNbt1SuUjZvCSKVPDjd-2">
          <mxGeometry y="887" width="560" height="242" as="geometry" />
        </mxCell>
        <mxCell id="QhNbt1SuUjZvCSKVPDjd-14" value="" style="shape=image;imageAspect=0;aspect=fixed;verticalLabelPosition=bottom;verticalAlign=top;image=http://139.224.43.44/diagram/images/plc/005.png;" vertex="1" parent="QhNbt1SuUjZvCSKVPDjd-2">
          <mxGeometry y="1129" width="560" height="242" as="geometry" />
        </mxCell>
        <mxCell id="QhNbt1SuUjZvCSKVPDjd-15" value="" style="shape=image;imageAspect=0;aspect=fixed;verticalLabelPosition=bottom;verticalAlign=top;image=http://139.224.43.44/diagram/images/plc/006.png;" vertex="1" parent="QhNbt1SuUjZvCSKVPDjd-2">
          <mxGeometry y="1371" width="560" height="242" as="geometry" />
        </mxCell>
        <mxCell id="QhNbt1SuUjZvCSKVPDjd-16" value="" style="shape=image;imageAspect=0;aspect=fixed;verticalLabelPosition=bottom;verticalAlign=top;image=http://139.224.43.44/diagram/images/plc/007.png;" vertex="1" parent="QhNbt1SuUjZvCSKVPDjd-2">
          <mxGeometry y="1613" width="560" height="242" as="geometry" />
        </mxCell>
        <mxCell id="QhNbt1SuUjZvCSKVPDjd-17" value="" style="shape=image;imageAspect=0;aspect=fixed;verticalLabelPosition=bottom;verticalAlign=top;image=http://139.224.43.44/diagram/images/plc/008.png;" vertex="1" parent="QhNbt1SuUjZvCSKVPDjd-2">
          <mxGeometry y="1855" width="560" height="242" as="geometry" />
        </mxCell>
        <mxCell id="QhNbt1SuUjZvCSKVPDjd-18" value="&lt;div style=&quot;font-size: 15px;&quot; align=&quot;left&quot;&gt;&lt;font style=&quot;font-size: 15px;&quot;&gt;&lt;b style=&quot;font-size: 16px;&quot;&gt;&lt;span style=&quot;&quot;&gt;电源模块&lt;br style=&quot;&quot;&gt;&lt;/span&gt;&lt;/b&gt;&lt;/font&gt;&lt;/div&gt;" style="swimlane;fontStyle=1;childLayout=stackLayout;horizontal=1;startSize=30;fillColor=#FFFFFF;horizontalStack=0;resizeParent=1;resizeParentMax=0;resizeLast=0;collapsible=1;marginBottom=0;html=1;verticalAlign=middle;align=left;swimlaneFillColor=none;fillStyle=auto;spacingLeft=24;fontSize=14;gradientColor=#E6E6E6;gradientDirection=radial;" vertex="1" collapsed="1" parent="QhNbt1SuUjZvCSKVPDjd-1">
          <mxGeometry y="60" width="560" height="30" as="geometry">
            <mxRectangle y="60" width="560" height="4536" as="alternateBounds" />
          </mxGeometry>
        </mxCell>
        <mxCell id="QhNbt1SuUjZvCSKVPDjd-19" value="&lt;div&gt;&lt;b&gt;&lt;font style=&quot;font-size: 13px;&quot;&gt;&lt;font style=&quot;font-size: 14px;&quot;&gt;PM 电源模块： PM (&lt;/font&gt;&lt;/font&gt;&lt;/b&gt;M -&lt;b&gt;&amp;nbsp;&lt;/b&gt;&lt;b&gt;&lt;span style=&quot;background-color: rgb(204, 0, 0);&quot;&gt;&amp;nbsp; Module&amp;nbsp;&lt;/span&gt; &amp;nbsp;&amp;nbsp; P&lt;/b&gt; -&amp;nbsp;&lt;span style=&quot;background-color: rgb(204, 0, 0);&quot;&gt; &lt;b&gt;Power&lt;/b&gt;&lt;/span&gt;&lt;b&gt;&lt;span style=&quot;background-color: rgb(204, 0, 0);&quot;&gt; &lt;/span&gt;&amp;nbsp;&amp;nbsp;&amp;nbsp;&amp;nbsp;&amp;nbsp;&amp;nbsp;&amp;nbsp;&lt;/b&gt;&lt;span style=&quot;background-color: rgb(204, 0, 0);&quot;&gt; Supply &lt;/span&gt;&lt;b&gt;&lt;font style=&quot;font-size: 13px;&quot;&gt;&lt;font style=&quot;font-size: 14px;&quot;&gt;) &lt;br&gt;&lt;/font&gt;&lt;/font&gt;&lt;/b&gt;&lt;/div&gt;&lt;div style=&quot;font-size: 13px;&quot;&gt;&lt;font style=&quot;font-size: 13px;&quot;&gt;&lt;font style=&quot;font-size: 13px;&quot;&gt;&lt;font style=&quot;font-size: 13px;&quot;&gt;&lt;font style=&quot;font-size: 12px;&quot;&gt;&amp;nbsp;- 为CPU、信号模块及其他扩展模块、其他用电设备(例如传感器)提供工作供电&lt;br&gt;&lt;/font&gt;&lt;/font&gt;&lt;/font&gt;&lt;/font&gt;&lt;/div&gt;&lt;span style=&quot;background-color: rgb(204, 0, 0);&quot;&gt;&lt;/span&gt;" style="text;strokeColor=#82b366;fillColor=#d5e8d4;align=center;verticalAlign=bottom;spacingLeft=4;spacingRight=4;overflow=hidden;rotatable=0;points=[[0,0.5],[1,0.5]];portConstraint=eastwest;whiteSpace=wrap;html=1;" vertex="1" parent="QhNbt1SuUjZvCSKVPDjd-18">
          <mxGeometry y="30" width="560" height="50" as="geometry" />
        </mxCell>
        <mxCell id="QhNbt1SuUjZvCSKVPDjd-20" value="" style="shape=image;imageAspect=0;aspect=fixed;verticalLabelPosition=bottom;verticalAlign=top;image=http://139.224.43.44/diagram/images/plc/017.png;" vertex="1" parent="QhNbt1SuUjZvCSKVPDjd-18">
          <mxGeometry y="80" width="560" height="393" as="geometry" />
        </mxCell>
        <mxCell id="QhNbt1SuUjZvCSKVPDjd-21" value="&lt;b&gt;&lt;font style=&quot;font-size: 13px;&quot;&gt;&lt;font style=&quot;font-size: 14px;&quot;&gt;PM电源模块的接线与开关&lt;br&gt;&lt;/font&gt;&lt;/font&gt;&lt;/b&gt;" style="text;strokeColor=none;fillColor=none;align=left;verticalAlign=bottom;spacingLeft=4;spacingRight=4;overflow=hidden;rotatable=0;points=[[0,0.5],[1,0.5]];portConstraint=eastwest;whiteSpace=wrap;html=1;" vertex="1" parent="QhNbt1SuUjZvCSKVPDjd-18">
          <mxGeometry y="473" width="560" height="41" as="geometry" />
        </mxCell>
        <mxCell id="QhNbt1SuUjZvCSKVPDjd-22" value="" style="shape=image;imageAspect=0;aspect=fixed;verticalLabelPosition=bottom;verticalAlign=top;image=http://139.224.43.44/diagram/images/plc/009.png;" vertex="1" parent="QhNbt1SuUjZvCSKVPDjd-18">
          <mxGeometry y="514" width="560" height="242" as="geometry" />
        </mxCell>
        <mxCell id="QhNbt1SuUjZvCSKVPDjd-23" value="&lt;div&gt;&lt;b&gt;&lt;font style=&quot;font-size: 13px;&quot;&gt;&lt;font style=&quot;font-size: 14px;&quot;&gt;PM电源模块的状态显示&lt;/font&gt;&lt;/font&gt;&lt;/b&gt;&lt;font style=&quot;font-size: 13px;&quot;&gt;&lt;font style=&quot;font-size: 14px;&quot;&gt;&lt;font style=&quot;font-size: 13px;&quot;&gt;&lt;font style=&quot;font-size: 12px;&quot;&gt;&amp;nbsp;&amp;nbsp;&amp;nbsp; &lt;font style=&quot;font-size: 11px;&quot;&gt;&lt;font style=&quot;font-size: 10px;&quot;&gt;- 亮、灭&lt;/font&gt;&lt;/font&gt;&lt;/font&gt;&lt;/font&gt;&lt;/font&gt;&lt;/font&gt;&lt;b&gt;&lt;font style=&quot;font-size: 13px;&quot;&gt;&lt;font style=&quot;font-size: 14px;&quot;&gt;&lt;br&gt;&lt;/font&gt;&lt;/font&gt;&lt;/b&gt;&lt;/div&gt;" style="text;strokeColor=none;fillColor=none;align=left;verticalAlign=bottom;spacingLeft=4;spacingRight=4;overflow=hidden;rotatable=0;points=[[0,0.5],[1,0.5]];portConstraint=eastwest;whiteSpace=wrap;html=1;" vertex="1" parent="QhNbt1SuUjZvCSKVPDjd-18">
          <mxGeometry y="756" width="560" height="41" as="geometry" />
        </mxCell>
        <mxCell id="QhNbt1SuUjZvCSKVPDjd-24" value="" style="shape=image;imageAspect=0;aspect=fixed;verticalLabelPosition=bottom;verticalAlign=top;image=http://139.224.43.44/diagram/images/plc/010.png;" vertex="1" parent="QhNbt1SuUjZvCSKVPDjd-18">
          <mxGeometry y="797" width="560" height="295" as="geometry" />
        </mxCell>
        <mxCell id="QhNbt1SuUjZvCSKVPDjd-25" value="&lt;div&gt;&lt;b&gt;&lt;font style=&quot;font-size: 13px;&quot;&gt;&lt;font style=&quot;font-size: 14px;&quot;&gt;PS 电源模块： PS (&lt;/font&gt;&lt;/font&gt;&lt;/b&gt;S -&lt;b&gt;&amp;nbsp;&lt;/b&gt;&lt;b&gt;&lt;span style=&quot;background-color: rgb(204, 0, 0);&quot;&gt;&amp;nbsp; System&amp;nbsp;&lt;/span&gt; &amp;nbsp;&amp;nbsp; P&lt;/b&gt; -&amp;nbsp;&lt;span style=&quot;background-color: rgb(204, 0, 0);&quot;&gt; &lt;b&gt;Power&lt;/b&gt;&lt;/span&gt;&lt;b&gt;&lt;span style=&quot;background-color: rgb(204, 0, 0);&quot;&gt; &lt;/span&gt;&amp;nbsp;&amp;nbsp;&amp;nbsp;&amp;nbsp;&amp;nbsp;&amp;nbsp;&amp;nbsp;&lt;/b&gt;&lt;span style=&quot;background-color: rgb(204, 0, 0);&quot;&gt; Supply &lt;/span&gt;&lt;b&gt;&lt;font style=&quot;font-size: 13px;&quot;&gt;&lt;font style=&quot;font-size: 14px;&quot;&gt;) &lt;br&gt;&lt;/font&gt;&lt;/font&gt;&lt;/b&gt;&lt;/div&gt;&lt;div style=&quot;font-size: 13px;&quot;&gt;&lt;font style=&quot;font-size: 13px;&quot;&gt;&lt;font style=&quot;font-size: 13px;&quot;&gt;&lt;font style=&quot;font-size: 13px;&quot;&gt;&lt;font style=&quot;font-size: 12px;&quot;&gt;&amp;nbsp;- 为CPU、信号模块及其他扩展模块提供工作供电&lt;br&gt;&lt;/font&gt;&lt;/font&gt;&lt;/font&gt;&lt;/font&gt;&lt;/div&gt;&lt;span style=&quot;background-color: rgb(204, 0, 0);&quot;&gt;&lt;/span&gt;" style="text;strokeColor=none;fillColor=none;align=center;verticalAlign=bottom;spacingLeft=4;spacingRight=4;overflow=hidden;rotatable=0;points=[[0,0.5],[1,0.5]];portConstraint=eastwest;whiteSpace=wrap;html=1;" vertex="1" parent="QhNbt1SuUjZvCSKVPDjd-18">
          <mxGeometry y="1092" width="560" height="68" as="geometry" />
        </mxCell>
        <mxCell id="QhNbt1SuUjZvCSKVPDjd-26" value="&lt;b&gt;&lt;font style=&quot;font-size: 13px;&quot;&gt;&lt;font style=&quot;font-size: 14px;&quot;&gt;PM电源模块的接线与开关&lt;br&gt;&lt;/font&gt;&lt;/font&gt;&lt;/b&gt;" style="text;strokeColor=none;fillColor=none;align=left;verticalAlign=bottom;spacingLeft=4;spacingRight=4;overflow=hidden;rotatable=0;points=[[0,0.5],[1,0.5]];portConstraint=eastwest;whiteSpace=wrap;html=1;" vertex="1" parent="QhNbt1SuUjZvCSKVPDjd-18">
          <mxGeometry y="1160" width="560" height="41" as="geometry" />
        </mxCell>
        <mxCell id="QhNbt1SuUjZvCSKVPDjd-27" value="" style="shape=image;imageAspect=0;aspect=fixed;verticalLabelPosition=bottom;verticalAlign=top;image=http://139.224.43.44/diagram/images/plc/011.png;" vertex="1" parent="QhNbt1SuUjZvCSKVPDjd-18">
          <mxGeometry y="1201" width="560" height="295" as="geometry" />
        </mxCell>
        <mxCell id="QhNbt1SuUjZvCSKVPDjd-28" value="&lt;div style=&quot;font-size: 10px;&quot;&gt;&lt;b&gt;&lt;font style=&quot;font-size: 13px;&quot;&gt;&lt;font style=&quot;font-size: 14px;&quot;&gt;PM电源模块的状态显示&lt;/font&gt;&lt;/font&gt;&lt;/b&gt;&lt;font style=&quot;font-size: 10px;&quot;&gt;&lt;font style=&quot;font-size: 10px;&quot;&gt;&lt;font style=&quot;font-size: 10px;&quot;&gt;&lt;font style=&quot;font-size: 10px;&quot;&gt;&amp;nbsp;&amp;nbsp;&amp;nbsp; &lt;font style=&quot;font-size: 10px;&quot;&gt;&lt;font style=&quot;font-size: 10px;&quot;&gt;- 亮、灭&lt;/font&gt;&lt;/font&gt;&lt;/font&gt;&lt;/font&gt;&lt;/font&gt;&lt;/font&gt;&lt;font style=&quot;font-size: 10px;&quot;&gt;&lt;font style=&quot;font-size: 10px;&quot;&gt;、闪&lt;br&gt;&lt;/font&gt;&lt;/font&gt;&lt;/div&gt;" style="text;strokeColor=none;fillColor=none;align=left;verticalAlign=bottom;spacingLeft=4;spacingRight=4;overflow=hidden;rotatable=0;points=[[0,0.5],[1,0.5]];portConstraint=eastwest;whiteSpace=wrap;html=1;" vertex="1" parent="QhNbt1SuUjZvCSKVPDjd-18">
          <mxGeometry y="1496" width="560" height="41" as="geometry" />
        </mxCell>
        <mxCell id="QhNbt1SuUjZvCSKVPDjd-29" value="" style="shape=image;imageAspect=0;aspect=fixed;verticalLabelPosition=bottom;verticalAlign=top;image=http://139.224.43.44/diagram/images/plc/012.png;" vertex="1" parent="QhNbt1SuUjZvCSKVPDjd-18">
          <mxGeometry y="1537" width="560" height="393" as="geometry" />
        </mxCell>
        <mxCell id="QhNbt1SuUjZvCSKVPDjd-30" value="&lt;b&gt;&lt;font style=&quot;font-size: 13px;&quot;&gt;&lt;font style=&quot;font-size: 14px;&quot;&gt;PM/PS 电源模块区别&lt;br&gt;&lt;/font&gt;&lt;/font&gt;&lt;/b&gt;" style="text;strokeColor=none;fillColor=none;align=left;verticalAlign=bottom;spacingLeft=4;spacingRight=4;overflow=hidden;rotatable=0;points=[[0,0.5],[1,0.5]];portConstraint=eastwest;whiteSpace=wrap;html=1;" vertex="1" parent="QhNbt1SuUjZvCSKVPDjd-18">
          <mxGeometry y="1930" width="560" height="41" as="geometry" />
        </mxCell>
        <mxCell id="QhNbt1SuUjZvCSKVPDjd-31" value="" style="shape=image;imageAspect=0;aspect=fixed;verticalLabelPosition=bottom;verticalAlign=top;image=http://139.224.43.44/diagram/images/plc/013.png;" vertex="1" parent="QhNbt1SuUjZvCSKVPDjd-18">
          <mxGeometry y="1971" width="560" height="393" as="geometry" />
        </mxCell>
        <mxCell id="QhNbt1SuUjZvCSKVPDjd-32" value="" style="shape=image;imageAspect=0;aspect=fixed;verticalLabelPosition=bottom;verticalAlign=top;image=http://139.224.43.44/diagram/images/plc/014.png;imageBorder=none;" vertex="1" parent="QhNbt1SuUjZvCSKVPDjd-18">
          <mxGeometry y="2364" width="560" height="393" as="geometry" />
        </mxCell>
        <mxCell id="QhNbt1SuUjZvCSKVPDjd-33" value="&lt;b&gt;&lt;font style=&quot;font-size: 13px;&quot;&gt;&lt;font style=&quot;font-size: 14px;&quot;&gt;背板总线&lt;br&gt;&lt;/font&gt;&lt;/font&gt;&lt;/b&gt;" style="text;strokeColor=none;fillColor=none;align=left;verticalAlign=bottom;spacingLeft=4;spacingRight=4;overflow=hidden;rotatable=0;points=[[0,0.5],[1,0.5]];portConstraint=eastwest;whiteSpace=wrap;html=1;" vertex="1" parent="QhNbt1SuUjZvCSKVPDjd-18">
          <mxGeometry y="2757" width="560" height="41" as="geometry" />
        </mxCell>
        <mxCell id="QhNbt1SuUjZvCSKVPDjd-34" value="" style="shape=image;imageAspect=0;aspect=fixed;verticalLabelPosition=bottom;verticalAlign=top;image=http://139.224.43.44/diagram/images/plc/015.png;" vertex="1" parent="QhNbt1SuUjZvCSKVPDjd-18">
          <mxGeometry y="2798" width="560" height="393" as="geometry" />
        </mxCell>
        <mxCell id="QhNbt1SuUjZvCSKVPDjd-35" value="" style="group;verticalAlign=bottom;align=left;" vertex="1" connectable="0" parent="QhNbt1SuUjZvCSKVPDjd-18">
          <mxGeometry y="3191" width="560" height="53" as="geometry" />
        </mxCell>
        <mxCell id="QhNbt1SuUjZvCSKVPDjd-36" value="&amp;nbsp; &lt;b&gt;&lt;font color=&quot;#000000&quot;&gt;PM电源是否需要背板总线连接器&lt;/font&gt;&lt;/b&gt;&lt;font color=&quot;#000000&quot;&gt;&lt;b&gt;连接器&lt;/b&gt;&lt;/font&gt;" style="rounded=0;whiteSpace=wrap;html=1;labelBackgroundColor=#FFFFFF;fontSize=14;fontColor=#FFFFFF;strokeColor=none;verticalAlign=bottom;fillColor=none;align=left;" vertex="1" parent="QhNbt1SuUjZvCSKVPDjd-35">
          <mxGeometry x="17" width="433" height="53" as="geometry" />
        </mxCell>
        <mxCell id="QhNbt1SuUjZvCSKVPDjd-37" value="" style="sketch=0;outlineConnect=0;fontColor=#232F3E;gradientColor=none;fillColor=#232F3D;strokeColor=none;dashed=0;verticalLabelPosition=bottom;verticalAlign=top;align=center;html=1;fontSize=12;fontStyle=0;aspect=fixed;pointerEvents=1;shape=mxgraph.aws4.question;labelBackgroundColor=#FFFFFF;" vertex="1" parent="QhNbt1SuUjZvCSKVPDjd-35">
          <mxGeometry x="11" y="28.62820512820513" width="12" height="22.83" as="geometry" />
        </mxCell>
        <mxCell id="QhNbt1SuUjZvCSKVPDjd-38" value="- 不需要 !&amp;nbsp; PM电源模块内部不存在总线结构&amp;nbsp; " style="text;strokeColor=none;fillColor=none;align=left;verticalAlign=top;spacingLeft=4;spacingRight=4;overflow=hidden;rotatable=0;points=[[0,0.5],[1,0.5]];portConstraint=eastwest;whiteSpace=wrap;html=1;" vertex="1" parent="QhNbt1SuUjZvCSKVPDjd-18">
          <mxGeometry y="3244" width="560" height="31" as="geometry" />
        </mxCell>
        <mxCell id="QhNbt1SuUjZvCSKVPDjd-39" value="" style="shape=image;imageAspect=0;aspect=fixed;verticalLabelPosition=bottom;verticalAlign=top;image=http://139.224.43.44/diagram/images/plc/013.png;" vertex="1" parent="QhNbt1SuUjZvCSKVPDjd-18">
          <mxGeometry y="3275" width="560" height="393" as="geometry" />
        </mxCell>
        <mxCell id="QhNbt1SuUjZvCSKVPDjd-40" value="&lt;b&gt;&lt;font style=&quot;font-size: 13px;&quot;&gt;&lt;font style=&quot;font-size: 14px;&quot;&gt;什么情况下必须使用PM电源模块&lt;br&gt;&lt;/font&gt;&lt;/font&gt;&lt;/b&gt;" style="text;strokeColor=none;fillColor=none;align=left;verticalAlign=bottom;spacingLeft=4;spacingRight=4;overflow=hidden;rotatable=0;points=[[0,0.5],[1,0.5]];portConstraint=eastwest;whiteSpace=wrap;html=1;" vertex="1" parent="QhNbt1SuUjZvCSKVPDjd-18">
          <mxGeometry y="3668" width="560" height="41" as="geometry" />
        </mxCell>
        <mxCell id="QhNbt1SuUjZvCSKVPDjd-41" value="" style="shape=image;imageAspect=0;aspect=fixed;verticalLabelPosition=bottom;verticalAlign=top;image=http://139.224.43.44/diagram/images/plc/018.png;" vertex="1" parent="QhNbt1SuUjZvCSKVPDjd-18">
          <mxGeometry y="3709" width="560" height="393" as="geometry" />
        </mxCell>
        <mxCell id="QhNbt1SuUjZvCSKVPDjd-42" value="&lt;b&gt;&lt;font style=&quot;font-size: 13px;&quot;&gt;&lt;font style=&quot;font-size: 14px;&quot;&gt;什么情况下必须使用PS电源模块&lt;br&gt;&lt;/font&gt;&lt;/font&gt;&lt;/b&gt;" style="text;strokeColor=none;fillColor=none;align=left;verticalAlign=bottom;spacingLeft=4;spacingRight=4;overflow=hidden;rotatable=0;points=[[0,0.5],[1,0.5]];portConstraint=eastwest;whiteSpace=wrap;html=1;" vertex="1" parent="QhNbt1SuUjZvCSKVPDjd-18">
          <mxGeometry y="4102" width="560" height="41" as="geometry" />
        </mxCell>
        <mxCell id="QhNbt1SuUjZvCSKVPDjd-43" value="" style="shape=image;imageAspect=0;aspect=fixed;verticalLabelPosition=bottom;verticalAlign=top;image=http://139.224.43.44/diagram/images/plc/019.png;" vertex="1" parent="QhNbt1SuUjZvCSKVPDjd-18">
          <mxGeometry y="4143" width="560" height="393" as="geometry" />
        </mxCell>
        <mxCell id="QhNbt1SuUjZvCSKVPDjd-44" value="&lt;font style=&quot;font-size: 15px;&quot;&gt;&lt;font style=&quot;font-size: 16px;&quot;&gt;CPU 模块&lt;/font&gt;&lt;/font&gt;" style="swimlane;fontStyle=1;childLayout=stackLayout;horizontal=1;startSize=30;fillColor=#FFFFFF;horizontalStack=0;resizeParent=1;resizeParentMax=0;resizeLast=0;collapsible=1;marginBottom=0;html=1;verticalAlign=middle;align=left;swimlaneFillColor=none;fillStyle=auto;spacingLeft=24;fontSize=14;gradientColor=#E6E6E6;gradientDirection=radial;" vertex="1" collapsed="1" parent="QhNbt1SuUjZvCSKVPDjd-1">
          <mxGeometry y="90" width="560" height="30" as="geometry">
            <mxRectangle y="90" width="560" height="948" as="alternateBounds" />
          </mxGeometry>
        </mxCell>
        <mxCell id="QhNbt1SuUjZvCSKVPDjd-45" value="&lt;div&gt;&lt;b&gt;&lt;font style=&quot;font-size: 13px;&quot;&gt;&lt;font style=&quot;font-size: 14px;&quot;&gt;S7-1500 CPU： 目前西门子速度最快的自动化控制器&lt;/font&gt;&lt;/font&gt;&lt;/b&gt;&lt;b&gt;&lt;font style=&quot;font-size: 13px;&quot;&gt;&lt;font style=&quot;font-size: 14px;&quot;&gt; &lt;br&gt;&lt;/font&gt;&lt;/font&gt;&lt;/b&gt;&lt;/div&gt;&lt;div style=&quot;font-size: 13px;&quot;&gt;&lt;font style=&quot;font-size: 13px;&quot;&gt;&lt;font style=&quot;font-size: 13px;&quot;&gt;&lt;font style=&quot;font-size: 13px;&quot;&gt;&lt;font style=&quot;font-size: 12px;&quot;&gt;&amp;nbsp;- 具有高速背板总线、PROFINET 性能和极短响应时间，CPU命令处理时间可达到 1ns&lt;br&gt;&lt;/font&gt;&lt;/font&gt;&lt;/font&gt;&lt;/font&gt;&lt;/div&gt;&lt;span style=&quot;background-color: rgb(204, 0, 0);&quot;&gt;&lt;/span&gt;" style="text;strokeColor=#82b366;fillColor=#d5e8d4;align=center;verticalAlign=bottom;spacingLeft=4;spacingRight=4;overflow=hidden;rotatable=0;points=[[0,0.5],[1,0.5]];portConstraint=eastwest;whiteSpace=wrap;html=1;" vertex="1" parent="QhNbt1SuUjZvCSKVPDjd-44">
          <mxGeometry y="30" width="560" height="50" as="geometry" />
        </mxCell>
        <mxCell id="QhNbt1SuUjZvCSKVPDjd-46" value="&lt;font style=&quot;font-size: 13px;&quot;&gt;&lt;b&gt;&lt;font style=&quot;font-size: 14px;&quot;&gt;S7-1500 CPU 的家庭成员&lt;/font&gt;&lt;/b&gt;&lt;/font&gt;" style="text;strokeColor=none;fillColor=none;align=left;verticalAlign=bottom;spacingLeft=4;spacingRight=4;overflow=hidden;rotatable=0;points=[[0,0.5],[1,0.5]];portConstraint=eastwest;whiteSpace=wrap;html=1;" vertex="1" parent="QhNbt1SuUjZvCSKVPDjd-44">
          <mxGeometry y="80" width="560" height="41" as="geometry" />
        </mxCell>
        <mxCell id="QhNbt1SuUjZvCSKVPDjd-47" value="" style="shape=image;imageAspect=0;aspect=fixed;verticalLabelPosition=bottom;verticalAlign=top;image=http://139.224.43.44/diagram/images/plc/020.png;" vertex="1" parent="QhNbt1SuUjZvCSKVPDjd-44">
          <mxGeometry y="121" width="560" height="393" as="geometry" />
        </mxCell>
        <mxCell id="QhNbt1SuUjZvCSKVPDjd-48" value="" style="shape=image;imageAspect=0;aspect=fixed;verticalLabelPosition=bottom;verticalAlign=top;image=http://139.224.43.44/diagram/images/plc/021.png;" vertex="1" parent="QhNbt1SuUjZvCSKVPDjd-44">
          <mxGeometry y="514" width="560" height="393" as="geometry" />
        </mxCell>
        <mxCell id="QhNbt1SuUjZvCSKVPDjd-49" value="&lt;font style=&quot;font-size: 13px;&quot;&gt;&lt;b&gt;&lt;font style=&quot;font-size: 14px;&quot;&gt;S7-1500 CPU 显示元件&lt;br&gt;&lt;/font&gt;&lt;/b&gt;&lt;/font&gt;" style="text;strokeColor=none;fillColor=none;align=left;verticalAlign=bottom;spacingLeft=4;spacingRight=4;overflow=hidden;rotatable=0;points=[[0,0.5],[1,0.5]];portConstraint=eastwest;whiteSpace=wrap;html=1;" vertex="1" parent="QhNbt1SuUjZvCSKVPDjd-44">
          <mxGeometry y="907" width="560" height="41" as="geometry" />
        </mxCell>
        <mxCell id="QhNbt1SuUjZvCSKVPDjd-50" value="&lt;font style=&quot;font-size: 15px;&quot;&gt;&lt;font style=&quot;font-size: 16px;&quot;&gt;信号模块&lt;/font&gt;&lt;/font&gt;" style="swimlane;fontStyle=1;childLayout=stackLayout;horizontal=1;startSize=30;fillColor=#FFFFFF;horizontalStack=0;resizeParent=1;resizeParentMax=0;resizeLast=0;collapsible=1;marginBottom=0;html=1;verticalAlign=middle;align=left;swimlaneFillColor=none;fillStyle=auto;spacingLeft=24;fontSize=14;gradientColor=#E6E6E6;gradientDirection=radial;" vertex="1" collapsed="1" parent="QhNbt1SuUjZvCSKVPDjd-1">
          <mxGeometry y="120" width="560" height="30" as="geometry">
            <mxRectangle y="120" width="560" height="194" as="alternateBounds" />
          </mxGeometry>
        </mxCell>
        <mxCell id="QhNbt1SuUjZvCSKVPDjd-51" value="&lt;b&gt;&lt;font style=&quot;font-size: 13px;&quot;&gt;&lt;font style=&quot;font-size: 14px;&quot;&gt;信号量模块&lt;br&gt;&lt;/font&gt;&lt;/font&gt;&lt;/b&gt;" style="text;strokeColor=none;fillColor=none;align=left;verticalAlign=bottom;spacingLeft=4;spacingRight=4;overflow=hidden;rotatable=0;points=[[0,0.5],[1,0.5]];portConstraint=eastwest;whiteSpace=wrap;html=1;" vertex="1" parent="QhNbt1SuUjZvCSKVPDjd-50">
          <mxGeometry y="30" width="560" height="41" as="geometry" />
        </mxCell>
        <mxCell id="QhNbt1SuUjZvCSKVPDjd-52" value="&lt;b&gt;&lt;font style=&quot;font-size: 13px;&quot;&gt;&lt;font style=&quot;font-size: 14px;&quot;&gt;模拟量模块&lt;br&gt;&lt;/font&gt;&lt;/font&gt;&lt;/b&gt;" style="text;strokeColor=none;fillColor=none;align=left;verticalAlign=bottom;spacingLeft=4;spacingRight=4;overflow=hidden;rotatable=0;points=[[0,0.5],[1,0.5]];portConstraint=eastwest;whiteSpace=wrap;html=1;" vertex="1" parent="QhNbt1SuUjZvCSKVPDjd-50">
          <mxGeometry y="71" width="560" height="41" as="geometry" />
        </mxCell>
        <mxCell id="QhNbt1SuUjZvCSKVPDjd-53" value="&lt;b&gt;&lt;font style=&quot;font-size: 13px;&quot;&gt;&lt;font style=&quot;font-size: 14px;&quot;&gt;如何看模块参数&lt;br&gt;&lt;/font&gt;&lt;/font&gt;&lt;/b&gt;" style="text;strokeColor=none;fillColor=none;align=left;verticalAlign=bottom;spacingLeft=4;spacingRight=4;overflow=hidden;rotatable=0;points=[[0,0.5],[1,0.5]];portConstraint=eastwest;whiteSpace=wrap;html=1;" vertex="1" parent="QhNbt1SuUjZvCSKVPDjd-50">
          <mxGeometry y="112" width="560" height="41" as="geometry" />
        </mxCell>
        <mxCell id="QhNbt1SuUjZvCSKVPDjd-54" value="1）设备之间的布局分散，无法将所有模块都布局在一个控制柜中，且远距离带来的信号干扰问题" style="text;strokeColor=none;fillColor=none;align=left;verticalAlign=bottom;spacingLeft=4;spacingRight=4;overflow=hidden;rotatable=0;points=[[0,0.5],[1,0.5]];portConstraint=eastwest;whiteSpace=wrap;html=1;" vertex="1" parent="QhNbt1SuUjZvCSKVPDjd-50">
          <mxGeometry y="153" width="560" height="41" as="geometry" />
        </mxCell>
        <mxCell id="QhNbt1SuUjZvCSKVPDjd-55" value="&lt;font style=&quot;font-size: 15px;&quot;&gt;&lt;font style=&quot;font-size: 16px;&quot;&gt;分布式I/O从站&lt;/font&gt;&lt;/font&gt;" style="swimlane;fontStyle=1;childLayout=stackLayout;horizontal=1;startSize=30;fillColor=#FFFFFF;horizontalStack=0;resizeParent=1;resizeParentMax=0;resizeLast=0;collapsible=1;marginBottom=0;html=1;verticalAlign=middle;align=left;swimlaneFillColor=none;fillStyle=auto;spacingLeft=24;fontSize=14;gradientColor=#E6E6E6;gradientDirection=radial;" vertex="1" collapsed="1" parent="QhNbt1SuUjZvCSKVPDjd-1">
          <mxGeometry y="150" width="560" height="30" as="geometry">
            <mxRectangle y="150" width="560" height="233" as="alternateBounds" />
          </mxGeometry>
        </mxCell>
        <mxCell id="QhNbt1SuUjZvCSKVPDjd-56" value="" style="group;verticalAlign=bottom;align=left;" vertex="1" connectable="0" parent="QhNbt1SuUjZvCSKVPDjd-55">
          <mxGeometry y="30" width="560" height="39" as="geometry" />
        </mxCell>
        <mxCell id="QhNbt1SuUjZvCSKVPDjd-57" value="&amp;nbsp; &lt;b&gt;&lt;font color=&quot;#000000&quot;&gt;为什么需要分布式I/O从站&lt;/font&gt;&lt;/b&gt;" style="rounded=0;whiteSpace=wrap;html=1;labelBackgroundColor=#FFFFFF;fontSize=14;fontColor=#FFFFFF;strokeColor=none;verticalAlign=bottom;fillColor=none;align=left;" vertex="1" parent="QhNbt1SuUjZvCSKVPDjd-56">
          <mxGeometry x="17" width="333" height="39" as="geometry" />
        </mxCell>
        <mxCell id="QhNbt1SuUjZvCSKVPDjd-58" value="" style="sketch=0;outlineConnect=0;fontColor=#232F3E;gradientColor=none;fillColor=#232F3D;strokeColor=none;dashed=0;verticalLabelPosition=bottom;verticalAlign=top;align=center;html=1;fontSize=12;fontStyle=0;aspect=fixed;pointerEvents=1;shape=mxgraph.aws4.question;labelBackgroundColor=#FFFFFF;" vertex="1" parent="QhNbt1SuUjZvCSKVPDjd-56">
          <mxGeometry x="11" y="11.5" width="12" height="22.83" as="geometry" />
        </mxCell>
        <mxCell id="QhNbt1SuUjZvCSKVPDjd-59" value="&lt;font style=&quot;font-size: 13px;&quot;&gt;&lt;b&gt;&lt;font style=&quot;font-size: 14px;&quot;&gt;ET200分布式I/O从站家族&lt;/font&gt;&lt;/b&gt;&lt;/font&gt;" style="text;strokeColor=none;fillColor=none;align=left;verticalAlign=bottom;spacingLeft=4;spacingRight=4;overflow=hidden;rotatable=0;points=[[0,0.5],[1,0.5]];portConstraint=eastwest;whiteSpace=wrap;html=1;" vertex="1" parent="QhNbt1SuUjZvCSKVPDjd-55">
          <mxGeometry y="69" width="560" height="41" as="geometry" />
        </mxCell>
        <mxCell id="QhNbt1SuUjZvCSKVPDjd-60" value="1）设备之间的布局分散，无法将所有模块都布局在一个控制柜中，且远距离带来的信号干扰问题" style="text;strokeColor=none;fillColor=none;align=left;verticalAlign=bottom;spacingLeft=4;spacingRight=4;overflow=hidden;rotatable=0;points=[[0,0.5],[1,0.5]];portConstraint=eastwest;whiteSpace=wrap;html=1;" vertex="1" parent="QhNbt1SuUjZvCSKVPDjd-55">
          <mxGeometry y="110" width="560" height="41" as="geometry" />
        </mxCell>
        <mxCell id="QhNbt1SuUjZvCSKVPDjd-61" value="2）cpu主站支持的信号点数无法满足项目的需求" style="text;strokeColor=none;fillColor=none;align=left;verticalAlign=bottom;spacingLeft=4;spacingRight=4;overflow=hidden;rotatable=0;points=[[0,0.5],[1,0.5]];portConstraint=eastwest;whiteSpace=wrap;html=1;" vertex="1" parent="QhNbt1SuUjZvCSKVPDjd-55">
          <mxGeometry y="151" width="560" height="41" as="geometry" />
        </mxCell>
        <mxCell id="QhNbt1SuUjZvCSKVPDjd-62" value="2）cpu主站支持的信号点数无法满足项目的需求" style="text;strokeColor=none;fillColor=none;align=left;verticalAlign=bottom;spacingLeft=4;spacingRight=4;overflow=hidden;rotatable=0;points=[[0,0.5],[1,0.5]];portConstraint=eastwest;whiteSpace=wrap;html=1;" vertex="1" parent="QhNbt1SuUjZvCSKVPDjd-55">
          <mxGeometry y="192" width="560" height="41" as="geometry" />
        </mxCell>
        <mxCell id="QhNbt1SuUjZvCSKVPDjd-63" value="&lt;font style=&quot;font-size: 15px;&quot;&gt;&lt;font style=&quot;font-size: 16px;&quot;&gt;常见工业网络简述&lt;/font&gt;&lt;/font&gt;" style="swimlane;fontStyle=1;childLayout=stackLayout;horizontal=1;startSize=30;fillColor=#FFFFFF;horizontalStack=0;resizeParent=1;resizeParentMax=0;resizeLast=0;collapsible=1;marginBottom=0;html=1;verticalAlign=middle;align=left;swimlaneFillColor=none;fillStyle=auto;spacingLeft=24;fontSize=14;gradientColor=#E6E6E6;gradientDirection=radial;" vertex="1" parent="QhNbt1SuUjZvCSKVPDjd-1">
          <mxGeometry y="180" width="560" height="112" as="geometry">
            <mxRectangle y="180" width="560" height="30" as="alternateBounds" />
          </mxGeometry>
        </mxCell>
        <mxCell id="QhNbt1SuUjZvCSKVPDjd-64" value="&lt;font style=&quot;font-size: 13px;&quot;&gt;&lt;b&gt;&lt;font style=&quot;font-size: 14px;&quot;&gt;PROFINET IO &lt;br&gt;&lt;/font&gt;&lt;/b&gt;&lt;/font&gt;" style="text;strokeColor=none;fillColor=none;align=left;verticalAlign=bottom;spacingLeft=4;spacingRight=4;overflow=hidden;rotatable=0;points=[[0,0.5],[1,0.5]];portConstraint=eastwest;whiteSpace=wrap;html=1;" vertex="1" parent="QhNbt1SuUjZvCSKVPDjd-63">
          <mxGeometry y="30" width="560" height="41" as="geometry" />
        </mxCell>
        <mxCell id="QhNbt1SuUjZvCSKVPDjd-65" value="&lt;font style=&quot;font-size: 13px;&quot;&gt;&lt;b&gt;&lt;font style=&quot;font-size: 14px;&quot;&gt;PROFINET IO &lt;br&gt;&lt;/font&gt;&lt;/b&gt;&lt;/font&gt;" style="text;strokeColor=none;fillColor=none;align=left;verticalAlign=bottom;spacingLeft=4;spacingRight=4;overflow=hidden;rotatable=0;points=[[0,0.5],[1,0.5]];portConstraint=eastwest;whiteSpace=wrap;html=1;" vertex="1" parent="QhNbt1SuUjZvCSKVPDjd-63">
          <mxGeometry y="71" width="560" height="41" as="geometry" />
        </mxCell>
      </root>
    </mxGraphModel>
  </diagram>
</mxfile>
